<svg width="40" height="41" viewBox="0 0 40 41" fill="none" xmlns="http://www.w3.org/2000/svg">
<path d="M38.4 0.610596H1.6C0.715 0.610596 0 1.3302 0 2.2209V39.2579C0 40.1486 0.715 40.8682 1.6 40.8682H38.4C39.285 40.8682 40 40.1486 40 39.2579V2.2209C40 1.3302 39.285 0.610596 38.4 0.610596ZM33.78 12.3608H30.585C28.08 12.3608 27.595 13.5584 27.595 15.3197V19.1995H33.575L32.795 25.2734H27.595V40.8682H21.36V25.2784H16.145V19.1995H21.36V14.7209C21.36 9.52261 24.515 6.68949 29.125 6.68949C31.335 6.68949 33.23 6.85555 33.785 6.93103V12.3608H33.78Z" fill="white"/>
</svg>
