<svg width="41" height="41" viewBox="0 0 41 41" fill="none" xmlns="http://www.w3.org/2000/svg">
<path d="M38.4625 0.610596H1.6625C0.7775 0.610596 0.0625 1.3302 0.0625 2.2209V39.2579C0.0625 40.1486 0.7775 40.8682 1.6625 40.8682H38.4625C39.3475 40.8682 40.0625 40.1486 40.0625 39.2579V2.2209C40.0625 1.3302 39.3475 0.610596 38.4625 0.610596ZM11.9275 34.9151H5.9925V15.7022H11.9275V34.9151ZM8.9625 13.0753C8.28213 13.0753 7.61704 12.8723 7.05134 12.4919C6.48563 12.1114 6.04472 11.5707 5.78435 10.9381C5.52399 10.3055 5.45587 9.60935 5.5886 8.93776C5.72133 8.26617 6.04896 7.64927 6.53005 7.16508C7.01115 6.68089 7.62409 6.35116 8.29139 6.21757C8.95868 6.08398 9.65035 6.15254 10.2789 6.41458C10.9075 6.67663 11.4448 7.12038 11.8228 7.68973C12.2007 8.25907 12.4025 8.92844 12.4025 9.61319C12.3975 11.5254 10.8575 13.0753 8.9625 13.0753ZM34.1475 34.9151H28.2175V25.5703C28.2175 23.341 28.1775 20.4777 25.1325 20.4777C22.0475 20.4777 21.5725 22.9032 21.5725 25.4093V34.9151H15.6475V15.7022H21.3375V18.329H21.4175C22.2075 16.8193 24.1425 15.2241 27.0325 15.2241C33.0425 15.2241 34.1475 19.2046 34.1475 24.3777V34.9151Z" fill="white"/>
</svg>
