<svg width="41" height="41" viewBox="0 0 41 41" fill="none" xmlns="http://www.w3.org/2000/svg">
<path d="M39.0875 0.610596H2.2875C1.4025 0.610596 0.6875 1.3302 0.6875 2.2209V39.2579C0.6875 40.1486 1.4025 40.8682 2.2875 40.8682H39.0875C39.9725 40.8682 40.6875 40.1486 40.6875 39.2579V2.2209C40.6875 1.3302 39.9725 0.610596 39.0875 0.610596ZM31.4525 15.1889C31.4675 15.4254 31.4675 15.672 31.4675 15.9135C31.4675 23.3008 25.8775 31.8102 15.6625 31.8102C12.5125 31.8102 9.5925 30.8893 7.1325 29.3042C7.5825 29.3545 8.0125 29.3746 8.4725 29.3746C11.0725 29.3746 13.4625 28.489 15.3675 26.9894C12.9275 26.939 10.8775 25.3287 10.1775 23.1146C11.0325 23.2404 11.8025 23.2404 12.6825 23.0139C11.4261 22.757 10.2969 22.0703 9.48658 21.0704C8.67629 20.0705 8.23493 18.8191 8.2375 17.5288V17.4584C8.9725 17.8761 9.8375 18.1327 10.7425 18.1679C9.98171 17.6576 9.35779 16.9663 8.92606 16.1552C8.49432 15.3441 8.26812 14.4383 8.2675 13.5182C8.2675 12.4765 8.5375 11.5254 9.0225 10.7001C10.417 12.4279 12.1572 13.841 14.1298 14.8475C16.1025 15.8541 18.2635 16.4316 20.4725 16.5425C19.6875 12.7432 22.5075 9.66855 25.8975 9.66855C27.4975 9.66855 28.9375 10.3429 29.9525 11.4298C31.2075 11.1933 32.4075 10.7203 33.4775 10.0862C33.0625 11.3795 32.1925 12.4715 31.0375 13.1609C32.1575 13.0401 33.2375 12.7281 34.2375 12.2903C33.4825 13.4075 32.5375 14.3988 31.4525 15.1889Z" fill="white"/>
</svg>
